<svg width="28" height="28" viewBox="0 0 28 28" fill="none" xmlns="http://www.w3.org/2000/svg">
<mask id="mask0_3109_33085" style="mask-type:luminance" maskUnits="userSpaceOnUse" x="1" y="1" width="26" height="25">
<path d="M26.1998 1H1.7998V25.4H26.1998V1Z" fill="white"/>
</mask>
<g mask="url(#mask0_3109_33085)">
<path d="M24.1753 16.6625L26.1623 16.3065L24.3614 14.291L25.9203 13.4192L23.9474 11.9486L25.2164 8.89861H22.4411L23.1701 5.90259L20.1963 7.42714L21.0096 3.47796L18.0048 5.9566L17.686 2.14364L15.4157 5.57522L13.9991 1L12.583 5.57522L10.3118 2.14364L9.99322 5.9566L6.98954 3.47796L7.80288 7.42714L4.82764 5.90259L5.55761 8.89836H2.78166L4.05024 11.9484L2.07768 13.4192L3.63657 14.291L1.83594 16.3065L3.82409 16.6625L2.46107 19.2607L4.22014 19.9145L3.71632 21.5838L5.14531 21.2692L5.28787 23.3272L6.47578 22.7219L6.58355 24.6103L7.52927 24.2955C7.52927 24.2955 9.2027 26.033 12.5658 25.1495C12.9562 25.047 13.2888 24.7766 13.4456 24.4039C13.6209 23.9917 13.5628 23.4919 12.4404 23.3071C10.4634 22.9826 7.72695 23.3642 6.73582 20.8815C6.72865 20.8641 6.72708 20.8448 6.73135 20.8265C6.73562 20.8082 6.7455 20.7916 6.75965 20.7792C6.77379 20.7667 6.79146 20.759 6.81018 20.7571C6.82893 20.7552 6.84778 20.7592 6.86415 20.7685C8.08415 21.4594 10.9432 22.0828 11.1814 20.7773C11.4358 19.3868 10.2144 18.927 9.52419 18.5463C8.834 18.1656 5.69746 17.1499 5.84319 15.2812C5.9889 13.4126 8.02833 13.9117 8.49081 14.2844C8.90765 14.5556 13.0256 17.09 13.0256 17.09C13.0256 17.09 11.5325 19.0723 13.9991 19.0723C16.4658 19.0723 14.9733 17.0895 14.9733 17.0895C14.9733 17.0895 19.0901 14.5556 19.5079 14.2844C19.9703 13.9117 22.0107 13.4131 22.155 15.2812C22.2994 17.1494 19.162 18.1658 18.4724 18.5465C17.7829 18.9272 16.5618 19.387 16.8153 20.7776C17.0543 22.0824 19.9105 21.46 21.132 20.7692C21.1484 20.7598 21.1673 20.7557 21.1861 20.7576C21.2049 20.7595 21.2226 20.7672 21.2368 20.7796C21.251 20.7921 21.2609 20.8087 21.2652 20.8271C21.2694 20.8455 21.2678 20.8647 21.2606 20.8822C20.2708 23.3642 17.5344 22.9826 15.558 23.3079C14.4361 23.4927 14.3775 23.9927 14.5533 24.4049C14.7115 24.7766 15.0418 25.047 15.4322 25.1503C18.7962 26.034 20.4703 24.2963 20.4703 24.2963L21.4156 24.6092L21.5224 22.7219L22.7095 23.3272L22.8525 21.2692L24.2811 21.5838L23.7788 19.9136L25.5379 19.2598L24.1753 16.6625ZM11.368 14.0192C11.1005 14.0192 10.8389 13.9399 10.6165 13.7912C10.394 13.6426 10.2207 13.4313 10.1183 13.1842C10.0159 12.937 9.98916 12.665 10.0414 12.4026C10.0936 12.1402 10.2224 11.8992 10.4116 11.7101C10.6008 11.5209 10.8418 11.3921 11.1042 11.3399C11.3666 11.2878 11.6386 11.3146 11.8858 11.417C12.1329 11.5194 12.3441 11.6928 12.4928 11.9153C12.6414 12.1377 12.7206 12.3993 12.7206 12.6668C12.7207 12.8445 12.6858 13.0204 12.6178 13.1846C12.5499 13.3488 12.4503 13.498 12.3246 13.6236C12.199 13.7493 12.0499 13.8489 11.8857 13.9169C11.7216 13.9849 11.5457 14.0199 11.368 14.0199V14.0192ZM16.6302 14.0192C16.3627 14.0193 16.1012 13.94 15.8787 13.7913C15.6562 13.6427 15.4828 13.4315 15.3804 13.1843C15.278 12.9372 15.2512 12.6652 15.3034 12.4028C15.3556 12.1403 15.4844 11.8993 15.6736 11.7101C15.8628 11.521 16.1038 11.3921 16.3662 11.3399C16.6286 11.2878 16.9006 11.3146 17.1478 11.417C17.3949 11.5194 17.6062 11.6928 17.7548 11.9153C17.9034 12.1377 17.9827 12.3993 17.9826 12.6668C17.9827 12.8445 17.9478 13.0204 17.8799 13.1846C17.812 13.3487 17.7124 13.4979 17.5868 13.6235C17.4612 13.7492 17.3121 13.8489 17.1479 13.9169C16.9838 13.9849 16.8079 14.0199 16.6302 14.0199V14.0192Z" fill="#AB9AFF"/>
</g>
</svg>
